# xmcd
# 
# Track frame offsets:
#     150
#     31762
#     51910
#     72800
#     94522
#     115787
#     130370
#     152390
#     173250
#     201805
#     224270
# 
# Disc length: 3051
# 
# Revision: 4
# Processed by: cddbd v1.5.2PL0 Copyright (c) Steve Scherf et al.
# Submitted via: BonkEnc v1.0
# 
DISCID=860be90b
DTITLE=Nuno Mindelis - The Cream Crackers
DYEAR=1992
DGENRE=Blues
TTITLE0=Talk about the blues
TTITLE1=Don't hide away
TTITLE2=Pay the cost to be the boss
TTITLE3=Three days straight
TTITLE4=It's your fault
TTITLE5=Dog's day night
TTITLE6=Answer to Ronnie
TTITLE7=Talk about somebody
TTITLE8=It's my turn
TTITLE9=Blues time
TTITLE10=Iberic blues
EXTD=YEAR: 1992
EXTT0=
EXTT1=
EXTT2=
EXTT3=
EXTT4=
EXTT5=
EXTT6=
EXTT7=
EXTT8=
EXTT9=
EXTT10=
PLAYORDER=
